<svg xmlns="http://www.w3.org/2000/svg" viewBox="0 0 64 64">
  <circle cx="32" cy="32" r="30" fill="#fff" stroke="#e11d2b" stroke-width="2.5"/>
  <!-- "M" as Inter ExtraBold outline (no font dependency; matches site type) -->
  <path transform="translate(12.549 47) scale(0.041235)" d="M229.492 0L56.641 0L56.641-727.539L325.195-727.539L417.969-444.336Q425.293-419.434 434.814-379.395Q444.336-339.355 454.102-292.969Q463.867-246.582 472.656-203.125Q480.957-246.582 490.479-292.725Q500-338.867 509.521-379.150Q519.043-419.434 526.367-444.336L617.676-727.539L886.719-727.539L886.719 0L713.379 0L713.379-313.477Q713.379-341.309 714.600-386.475Q715.820-431.641 717.285-484.375Q718.750-537.109 719.727-585.937Q707.520-534.180 694.092-481.934Q680.664-429.687 668.457-385.498Q656.250-341.309 647.461-313.477L543.945 0L399.902 0L294.922-313.477Q286.621-340.332 274.414-382.812Q262.207-425.293 248.779-475.830Q235.352-526.367 223.145-577.637Q224.121-529.785 225.586-479.004Q227.051-428.223 228.271-384.521Q229.492-340.820 229.492-313.477" fill="#e11d2b"/>
</svg>
